<svg xmlns="http://www.w3.org/2000/svg" width="1800" height="1100" viewBox="0 0 1800 1100" fill="none">
  <defs>
    <radialGradient id="cyanGlow" cx="0" cy="0" r="1" gradientUnits="userSpaceOnUse" gradientTransform="translate(420 230) rotate(40) scale(520 360)">
      <stop stop-color="#22D3EE" stop-opacity="0.42"/>
      <stop offset="0.52" stop-color="#2563EB" stop-opacity="0.16"/>
      <stop offset="1" stop-color="#2563EB" stop-opacity="0"/>
    </radialGradient>
    <radialGradient id="greenGlow" cx="0" cy="0" r="1" gradientUnits="userSpaceOnUse" gradientTransform="translate(1340 250) rotate(138) scale(520 320)">
      <stop stop-color="#10B981" stop-opacity="0.34"/>
      <stop offset="0.58" stop-color="#F59E0B" stop-opacity="0.12"/>
      <stop offset="1" stop-color="#10B981" stop-opacity="0"/>
    </radialGradient>
    <linearGradient id="panelStroke" x1="295" y1="260" x2="1440" y2="850" gradientUnits="userSpaceOnUse">
      <stop stop-color="#67E8F9" stop-opacity="0.44"/>
      <stop offset="0.52" stop-color="#FFFFFF" stop-opacity="0.10"/>
      <stop offset="1" stop-color="#34D399" stop-opacity="0.34"/>
    </linearGradient>
    <filter id="softBlur" x="-20%" y="-20%" width="140%" height="140%" color-interpolation-filters="sRGB">
      <feGaussianBlur stdDeviation="22"/>
    </filter>
  </defs>
  <rect width="1800" height="1100" fill="transparent"/>
  <ellipse cx="420" cy="230" rx="560" ry="360" fill="url(#cyanGlow)"/>
  <ellipse cx="1340" cy="250" rx="560" ry="350" fill="url(#greenGlow)"/>
  <g opacity="0.42">
    <path d="M64 180H1736" stroke="#FFFFFF" stroke-opacity="0.08"/>
    <path d="M64 300H1736" stroke="#FFFFFF" stroke-opacity="0.07"/>
    <path d="M64 420H1736" stroke="#FFFFFF" stroke-opacity="0.07"/>
    <path d="M64 540H1736" stroke="#FFFFFF" stroke-opacity="0.07"/>
    <path d="M64 660H1736" stroke="#FFFFFF" stroke-opacity="0.06"/>
    <path d="M64 780H1736" stroke="#FFFFFF" stroke-opacity="0.05"/>
    <path d="M240 80V1000" stroke="#FFFFFF" stroke-opacity="0.06"/>
    <path d="M480 80V1000" stroke="#FFFFFF" stroke-opacity="0.07"/>
    <path d="M720 80V1000" stroke="#FFFFFF" stroke-opacity="0.06"/>
    <path d="M960 80V1000" stroke="#FFFFFF" stroke-opacity="0.07"/>
    <path d="M1200 80V1000" stroke="#FFFFFF" stroke-opacity="0.06"/>
    <path d="M1440 80V1000" stroke="#FFFFFF" stroke-opacity="0.07"/>
  </g>
  <g filter="url(#softBlur)" opacity="0.42">
    <path d="M360 745C512 650 640 650 791 745C948 844 1105 842 1260 732C1358 663 1452 637 1540 652" stroke="#22D3EE" stroke-opacity="0.5" stroke-width="22" stroke-linecap="round"/>
    <path d="M250 430C405 360 540 368 700 454C875 548 1027 542 1190 438C1306 364 1420 340 1545 372" stroke="#10B981" stroke-opacity="0.34" stroke-width="18" stroke-linecap="round"/>
  </g>
  <g opacity="0.72">
    <rect x="318" y="302" width="460" height="286" rx="22" fill="#07111F" fill-opacity="0.28" stroke="url(#panelStroke)"/>
    <rect x="348" y="342" width="176" height="18" rx="9" fill="#67E8F9" fill-opacity="0.45"/>
    <rect x="348" y="394" width="360" height="44" rx="10" fill="#FFFFFF" fill-opacity="0.12"/>
    <rect x="348" y="460" width="274" height="44" rx="10" fill="#FFFFFF" fill-opacity="0.08"/>
    <rect x="348" y="526" width="190" height="18" rx="9" fill="#34D399" fill-opacity="0.38"/>
    <circle cx="700" cy="532" r="30" fill="#22D3EE" fill-opacity="0.18" stroke="#67E8F9" stroke-opacity="0.45"/>
    <rect x="960" y="248" width="520" height="340" rx="24" fill="#07111F" fill-opacity="0.24" stroke="url(#panelStroke)"/>
    <path d="M1022 505L1115 430L1190 470L1270 350L1400 418" stroke="#67E8F9" stroke-opacity="0.6" stroke-width="8" stroke-linecap="round" stroke-linejoin="round"/>
    <circle cx="1115" cy="430" r="12" fill="#22D3EE"/>
    <circle cx="1270" cy="350" r="12" fill="#34D399"/>
    <rect x="1018" y="304" width="130" height="16" rx="8" fill="#FFFFFF" fill-opacity="0.18"/>
    <rect x="1018" y="624" width="390" height="16" rx="8" fill="#FFFFFF" fill-opacity="0.11"/>
  </g>
  <g opacity="0.45">
    <circle cx="240" cy="800" r="5" fill="#67E8F9"/>
    <circle cx="520" cy="710" r="4" fill="#34D399"/>
    <circle cx="842" cy="806" r="5" fill="#FCD34D"/>
    <circle cx="1188" cy="748" r="4" fill="#67E8F9"/>
    <circle cx="1516" cy="842" r="5" fill="#34D399"/>
    <path d="M240 800L520 710L842 806L1188 748L1516 842" stroke="#FFFFFF" stroke-opacity="0.16"/>
  </g>
</svg>
